<svg xmlns="http://www.w3.org/2000/svg">
    <symbol id="icon-enter" viewBox="0 0 71.02 71.36">
        <path class="cls-1" d="M14.34,57.9a30.59,30.59,0,1,0-.24-44.2L10.57,10a35.68,35.68,0,1,1,.28,51.55Z"/>
        <path class="cls-1" d="M44.93,35.67h0l-12-12-3.61,3.61,5.82,5.82H0v5.1H35.21l-5.82,5.82L33,47.65,45,35.7Z"/>
    </symbol>
    <symbol id="icon-menu" viewBox="0 0 41 36">
        <path d="M2.42,3.88578059e-16 C2.03382265,0.0284525827 1.67446848,0.20812967 1.42,0.5 C1.13902695,0.787950207 0.987388373,1.17787797 1,1.58 C1.02066052,1.97802818 1.19887986,2.35146917 1.49531668,2.61788707 C1.7917535,2.88430498 2.1820322,3.0217926 2.58,3 L39.58,3 C39.9803464,3.00838562 40.3667874,2.85308689 40.65,2.57 C40.9370626,2.2879711 41.0987626,1.9024242 41.0987626,1.5 C41.0987626,1.0975758 40.9370626,0.712028902 40.65,0.43 C40.3642646,0.150756812 39.9795079,-0.0038650453 39.58,5.5622282e-16 L2.42,3.88578059e-16 Z M2.42,11 C2.03382265,11.0284526 1.67446848,11.2081297 1.42,11.5 C1.13902695,11.7879502 0.987388373,12.177878 1,12.58 C1.02066052,12.9780282 1.19887986,13.3514692 1.49531668,13.6178871 C1.7917535,13.884305 2.1820322,14.0217926 2.58,14 L39.58,14 C39.9803464,14.0083856 40.3667874,13.8530869 40.65,13.57 C40.9370626,13.2879711 41.0987626,12.9024242 41.0987626,12.5 C41.0987626,12.0975758 40.9370626,11.7120289 40.65,11.43 C40.3642646,11.1507568 39.9795079,10.996135 39.58,11 L2.42,11 Z M2.42,22 C2.03382265,22.0284526 1.67446848,22.2081297 1.42,22.5 C1.13902695,22.7879502 0.987388373,23.177878 1,23.58 C1.02066052,23.9780282 1.19887986,24.3514692 1.49531668,24.6178871 C1.7917535,24.884305 2.1820322,25.0217926 2.58,25 L39.58,25 C39.9803464,25.0083856 40.3667874,24.8530869 40.65,24.57 C40.9370626,24.2879711 41.0987626,23.9024242 41.0987626,23.5 C41.0987626,23.0975758 40.9370626,22.7120289 40.65,22.43 C40.3642646,22.1507568 39.9795079,21.996135 39.58,22 L2.42,22 Z M2.42,33 C2.03382265,33.0284526 1.67446848,33.2081297 1.42,33.5 C1.13902695,33.7879502 0.987388373,34.177878 1,34.58 C1.02066052,34.9780282 1.19887986,35.3514692 1.49531668,35.6178871 C1.7917535,35.884305 2.1820322,36.0217926 2.58,36 L39.58,36 C39.9803464,36.0083856 40.3667874,35.8530869 40.65,35.57 C40.9370626,35.2879711 41.0987626,34.9024242 41.0987626,34.5 C41.0987626,34.0975758 40.9370626,33.7120289 40.65,33.43 C40.3642646,33.1507568 39.9795079,32.996135 39.58,33 L2.42,33 Z"/>
    </symbol>
    <symbol id="icon-arrow-right" viewBox="0 0 39.36 61.36">
        <path d="M8.67 61.36L0 52.66l22-22L0 8.69 8.67 0 35 26.33l4.36 4.33z"/>
    </symbol>
    <symbol id="icon-arrow-left" viewBox="0 0 39.36 61.36">
        <path d="M30.69 0l8.67 8.69-22 22 22 22-8.67 8.7L4.36 35 0 30.69z"/>
    </symbol>
    <symbol id="icon-wish" viewBox="0 0 185.94 37.45">
        <path d="M1.26 24.09c.9-1.78 2-3.46 3.07-5.21S6.67 15 6.67 13.26a3.66 3.66 0 0 0-.07-.59c-.77-3-1.75-6-2.55-9A.87.87 0 0 1 4 3.39c0-.35.17-.74.21-1.12.42.24 1.08.35 1.26.7 1 2.48 1.71 5.13 3.1 7.36 2.13-2.89 4-5.9 5.8-8.83A3 3 0 0 1 17 0c.53 0 1.47.21 1.47.77a2 2 0 0 1-.35 1c-1.53 2.44-3.17 4.78-4.64 7.16-1.22 2-2.27 4.08-3.32 6.14a3.09 3.09 0 0 0-.28 1.15 2 2 0 0 0 .07.42A36.75 36.75 0 0 0 14 26.46c.87 1.4 2.41 2.23 3.21 3.8a3.69 3.69 0 0 1-1 .32h-.14A6.25 6.25 0 0 1 12.15 27c-1.05-2-3.21-7.75-3.74-7.75-1.43.52-2.69 4-3.7 5.72-.77 1.33-1.81 3.74-3 3.74-.59 0-1.15-.84-1.71-1.36a24.49 24.49 0 0 1 1.26-3.26z"/>
        <path d="M20.11 15c.8 0 1.57.28 1.57.91 0 .21-.07.46-.21.53-2.2 1.85-2.69 4.15-3.18 6.38v.11c0 .52.59 1.05.87 1.57.67-.28 1.64-.49 1.89-.91 1.05-1.81 2.27-4.12 2.27-6 0-.73-.49-1.43-.49-2.27 0-.52.28-.69.84-1 .24.24.63.45.76.69a8.83 8.83 0 0 1 .74 3.46c0 3.46-2.93 7.65-6.15 7.65-2.33 0-3.73-1.61-3.73-4.58C15.5 20 17.07 15 20.11 15zM26.7 24.68c.42-2.65.88-5.38 1.19-8.06.17-1.37-.14-4 1.19-4 1.11 0 1.88 1.57 2.2 1.57s1.32-1.71 2.37-1.71a1.94 1.94 0 0 1 1.78 2.09c0 2.65-1.85 9.18-5 9.18a1.34 1.34 0 0 0-1 .73c-.66 3.53-.87 7.2-2.13 10.55-.17.35-.7.59-1.08.9a3.36 3.36 0 0 1-.63-1.64v-.8h-.14zm7.47-9.91a.81.81 0 0 0-.66-.7c-.91 0-1.88 2.75-2.48 4v.17c0 .77.76 1.43 1.43 2.17a16.62 16.62 0 0 0 1.71-5.64zM41.64 15c.81 0 1.57.28 1.57.91 0 .21-.07.46-.21.53-2.19 1.85-2.68 4.15-3.17 6.38v.11c0 .52.59 1.05.87 1.57.66-.28 1.64-.49 1.89-.91 1-1.81 2.26-4.12 2.26-6 0-.73-.48-1.43-.48-2.27 0-.52.28-.69.83-1 .25.24.63.45.77.69a8.82 8.82 0 0 1 .73 3.46c0 3.46-2.93 7.65-6.14 7.65-2.34 0-3.73-1.61-3.73-4.58C37 20 38.61 15 41.64 15zM49.08 17.07a18.16 18.16 0 0 1 .7-2.51c.1-.25.52-.46.76-.67.18.28.46.63.46.88-.28 1.46-.67 3-1 4.43a15.92 15.92 0 0 0-.74 3.28c0 .14.07.35.07.49.21 0 .53 0 .67-.18 1.22-1.6 2.19-3.14 3.28-4.57a3.17 3.17 0 0 1 1-.49 3 3 0 0 1 .35.94c0 1-.53 2.13-.53 3.11a5.38 5.38 0 0 0 .21.77c2.17-1.05 3.77-3.74 4.51-6.11.24-.87 1-1.81 1.57-1.81s.94.62.94 1.5v.21c-.49 2.65-.91 5.27-1.47 7.85a1.37 1.37 0 0 1-1.5 1.22c-.7 0-1-.52-1.12-1.29a13.55 13.55 0 0 1 .28-1.71 8.58 8.58 0 0 0-.14-1.05 2.46 2.46 0 0 0-1 .32c-.9.8-2.09 2.23-2.82 2.23-.35 0-.56-.63-.67-1l-.21-1.39a8.1 8.1 0 0 0-1.11 1.08c-.88 1-1.36 2.13-2.73 2.13-.31 0-1-.73-1-1.57v-.32c0-.11-.07 0-.14-.07.4-1.9.92-3.77 1.38-5.7zM64.37 14c.1-.6.42-1 1-1s.77.31.77.59a3.58 3.58 0 0 1-.17.84c-.28 2.16-.63 4.32-.94 6.52 0 .46.31.81.41 1.23a2.34 2.34 0 0 0 .91-.74c1.43-2.44 2.72-4.85 4.09-7.29.24-.42.52-.88 1-.88a1.3 1.3 0 0 1 1.26 1.37 1.23 1.23 0 0 1 0 .38c-.62 2.48-1.22 4.92-1.74 7.4a3.38 3.38 0 0 0-.07.63 17.2 17.2 0 0 0 .42 2.06c0 .52-.94 1.18-1.54 1.18-.87 0-1.25-1.74-1.57-2.68l-.31-1a7.7 7.7 0 0 0-.91.45c-.73.67-1.22 1.68-2.16 1.68-1.19 0-1.4-1.36-1.61-3h-.1c.38-2.61.77-5.16 1.26-7.74zM79 12.78c.56 1.5.77 2.19 1.22 2.19.87 0 2.76-3.59 4.61-3.59a6.41 6.41 0 0 1 1.08.21 4.22 4.22 0 0 1-.42 1.33c-1.5 1.92-4.12 4.5-4.12 5.79s1.68 4.08 2.2 6.35v.25a7.53 7.53 0 0 1-.6 1.81c-.52-.38-1.29-.59-1.6-1.11-1-1.54-2.48-4.89-3.15-4.89s-3.35 3.42-4.74 4.88a16.14 16.14 0 0 1-1.43.8V26a1.73 1.73 0 0 1 .18-.88c1.39-2 2.75-4 4.29-5.83a2.67 2.67 0 0 0 .77-1.71c0-.87-1.57-3.7-1.57-4.85A1.19 1.19 0 0 1 77 11.55a1.89 1.89 0 0 1 2 1.23zM93.16 24.92c-.76 0-1-.87-1-1.67 0-2.24.25-4.54.39-6.84.17-1.57.07-3.42 1.5-3.42.94 0 1.11.59 1.11 1.46 0 1.05-.17 2-.17 3 0 .45.14.84.17 1.25a3.63 3.63 0 0 0 .77-.8s1.85-4.75 4.09-4.75c2.09 0 3.49 4.4 3.49 6.25 0 2.73-1.36 4.65-1.36 5.1 0 .66.45 3.21 1.64 3.21a.65.65 0 0 1 .73.59c0 .35-.32.67-1.05.67-1.71 0-3.35-1.33-3.35-4.23 0-1.57 1.12-4.74 1.12-6.14 0-.8-.25-1.26-.74-1.26-1 0-3 1.92-5.65 6.36a2.4 2.4 0 0 1-1.69 1.22zM110.72 15c.81 0 1.57.28 1.57.91 0 .21-.07.46-.21.53-2.2 1.85-2.68 4.15-3.17 6.38v.11c0 .52.59 1.05.87 1.57.66-.28 1.64-.49 1.88-.91 1-1.81 2.27-4.12 2.27-6 0-.73-.49-1.43-.49-2.27 0-.52.28-.69.84-1 .25.24.63.45.77.69a8.82 8.82 0 0 1 .73 3.46c0 3.46-2.93 7.65-6.14 7.65-2.34 0-3.73-1.61-3.73-4.58.2-1.54 1.78-6.54 4.81-6.54zM127.48 11.27a10.32 10.32 0 0 1-2.73 6.32l-1.18 1.19c2.76 1.26 5.37 6 5.37 7.47 0 .66-.31 1.5-.76 1.5-.18 0-.35-.14-.46-.42-.94-2.16-3.07-5.79-6-5.79a3.44 3.44 0 0 0-.56 0A42.73 42.73 0 0 1 119.1 28c-.11.21-.45.35-.66.52-.14-.24-.46-.52-.53-.76a17.16 17.16 0 0 0-.38-2.1c1.08-5.79 2.16-11.73 3.14-16.16l.77-4.22a1 1 0 0 1 1-1 1.13 1.13 0 0 1 1.29 1.16v.31c-.63 3.94-.38 4.22-1 8.13a1.64 1.64 0 0 0-.1.49 4 4 0 0 0 .21 1.15c.24-.17.63-.38.77-.69.73-1.61 1.6-4.86 2.58-4.86h.28a1.2 1.2 0 0 1 1.01 1.3z"/>
        <path d="M127.69 37.42c-2.55 0-4-1.64-5.59-3.25-.14-.14-.07-.52-.14-.83a5.76 5.76 0 0 1 .77.1l2.72 1.08a7.09 7.09 0 0 0 2.52.56c1.74 0 3-1 3.8-3.21 1-2.62 1.57-5.31 2.3-8a13.26 13.26 0 0 0 .6-2.79 5.57 5.57 0 0 0-.14-.77 5.2 5.2 0 0 1-1.71.77c-1.82 0-2.41-4-2.41-7.86a.57.57 0 0 1 .07-.27l.77-1c.31.35.73.7.76 1.09.21 1.67.21 3.42.35 5.09a5.52 5.52 0 0 0 .53 1.15c.38-.31.77-.52 1-1a38.73 38.73 0 0 0 1.54-3.74c.21-.7.56-1 1.15-1 .88 0 1.22.49 1.22 1.12a30.69 30.69 0 0 1-.69 6.21c-.74 3.56-1.5 7.16-2.52 10.69-.77 2.61-3.21 5.82-5.62 5.82a2.22 2.22 0 0 1-.66-.07 3.13 3.13 0 0 1-.62.11zM140.22 24.92c-.77 0-1-.87-1-1.67 0-2.24.25-4.54.39-6.84.17-1.57.07-3.42 1.5-3.42.94 0 1.12.59 1.12 1.46 0 1.05-.18 2-.18 3a11.74 11.74 0 0 0 .18 1.25 3.57 3.57 0 0 0 .76-.8s1.85-4.75 4.09-4.75c2.09 0 3.49 4.4 3.49 6.25 0 2.73-1.36 4.65-1.36 5.1 0 .66.45 3.21 1.64 3.21a.65.65 0 0 1 .73.59c0 .35-.31.67-1.05.67-1.71 0-3.35-1.33-3.35-4.23 0-1.57 1.12-4.74 1.12-6.14 0-.8-.24-1.26-.73-1.26-1 0-3 1.92-5.66 6.36a2.38 2.38 0 0 1-1.69 1.22zM157.78 15c.8 0 1.57.28 1.57.91 0 .21-.07.46-.21.53-2.2 1.85-2.69 4.15-3.18 6.38v.11c0 .52.59 1.05.87 1.57.67-.28 1.64-.49 1.89-.91 1-1.81 2.27-4.12 2.27-6 0-.73-.49-1.43-.49-2.27 0-.52.28-.69.84-1 .24.24.62.45.76.69a8.83 8.83 0 0 1 .74 3.46c0 3.46-2.94 7.65-6.15 7.65-2.34 0-3.73-1.61-3.73-4.58.21-1.54 1.78-6.54 4.82-6.54zM174.53 11.27a10.37 10.37 0 0 1-2.72 6.32l-1.19 1.19c2.76 1.26 5.38 6 5.38 7.47 0 .66-.32 1.5-.77 1.5-.18 0-.35-.14-.46-.42-.94-2.16-3.07-5.79-6-5.79a3.57 3.57 0 0 0-.56 0 41.63 41.63 0 0 1-2.06 6.46c-.1.21-.45.35-.66.52-.14-.24-.45-.52-.52-.76a17.1 17.1 0 0 0-.39-2.1c1.08-5.79 2.17-11.73 3.14-16.16l.77-4.22c.11-.67.49-1 1-1a1.13 1.13 0 0 1 1.29 1.16v.31c-.63 3.94-.39 4.22-1 8.13a1.41 1.41 0 0 0-.11.49 4.33 4.33 0 0 0 .21 1.15 2 2 0 0 0 .77-.69c.73-1.61 1.61-4.86 2.58-4.86h.28a1.2 1.2 0 0 1 1.02 1.3z"/>
        <path d="M176.8 27c-.7 0-1.5-1.12-1.5-2.24 0-.87.73-1.46 1.81-1.46s1.22.7 1.43 1.36c0 .86-1.15 2.34-1.74 2.34zm4.68-21.33c.66-1.92 1.08-5.62 2.93-5.62 1 0 1.53.49 1.53 1.12a2 2 0 0 1-.1.63c-2.27 6.17-4.29 12.6-7.26 18.32-.18.28-.66.45-1.05.66a9 9 0 0 0-.45-1 135.72 135.72 0 0 1 4.4-14.09z"/>
    </symbol>
    <symbol id="icon-sort" viewBox="0 0 54.89 38">
        <path d="M54.89 2.81a1.41 1.41 0 0 1-1.41 1.41H1.41A1.41 1.41 0 0 1 0 2.81v-1.4A1.41 1.41 0 0 1 1.41 0h52.07a1.41 1.41 0 0 1 1.41 1.41zM47.85 14.07a1.41 1.41 0 0 1-1.41 1.41h-38A1.41 1.41 0 0 1 7 14.07v-1.4a1.41 1.41 0 0 1 1.4-1.41h38a1.41 1.41 0 0 1 1.41 1.41zM42.22 25.33a1.41 1.41 0 0 1-1.41 1.41H14.07a1.41 1.41 0 0 1-1.4-1.41v-1.4a1.41 1.41 0 0 1 1.4-1.41h26.74a1.41 1.41 0 0 1 1.41 1.41zM36.59 36.59a1.41 1.41 0 0 1-1.4 1.41H19.7a1.41 1.41 0 0 1-1.4-1.41v-1.4a1.41 1.41 0 0 1 1.4-1.41h15.49a1.41 1.41 0 0 1 1.4 1.41z"/>
    </symbol>
    <symbol id="icon-download" viewBox="0 0 41.99 41.99">
        <path class="cls-1" d="M14,23.33l7,9.33,7-9.33H23.33V0H18.71l-.05,23.33Z"/>
        <path class="cls-1" d="M0,37.33H42V42H0Z"/>
    </symbol>
    <symbol id="icon-pdf" viewBox="0 0 100 100">
        <path d="m48.301 31.398h-0.10156c-0.19922 0-0.30078 0.10156-0.39844 0.39844-0.39844 0.89844-0.10156 2.6992 0.5 4.6016 0.5-3.2969 0.19922-4.6992 0-5z"/>
        <path d="m34.801 65.801c0 0.10156-0.10156 0.5 0.69922 1.1016 0.19922-0.10156 1.6016-0.69922 4.1016-5.3008-3.4023 1.7969-4.7031 3.2969-4.8008 4.1992z"/>
        <path d="m44.898 56.199c3.1992-1.3008 6.8008-2.3008 10-3.1016-2.1016-2.3984-4.1992-5.5-5.8984-8.6016-1.1016 3.8047-2.5 8.0039-4.1016 11.703z"/>
        <path d="m50 5c-24.801 0-45 20.199-45 45s20.102 45 45 45 45-20.102 45-45-20.199-45-45-45zm17 52c-0.89844 1.1992-2 1.8008-3.3984 1.8008-1.8984 0-4.1016-1.1992-6.5-3.5-4.3984 0.89844-9.5 2.6016-13.699 4.3984-1.3008 2.6992-2.5 5-3.6992 6.6016-1.6016 2.1992-3 3.3008-4.3008 3.3008-0.5 0-1.1016-0.19922-1.5-0.5-1.6016-1.1992-1.8008-2.6016-1.6992-3.5 0.30078-2.5 3.3984-5.1992 9.3008-7.8008 2.3008-5.1016 4.5-11.398 5.8984-16.602-1.5-3.3984-3-7.6992-1.8984-10.301 0.39844-0.89844 1.1016-1.5 1.8984-1.8008 0.39844-0.10156 0.69922-0.19922 1-0.19922 0.80078 0 1.5 0.30078 2 1 0.5 0.60156 1.8008 2.3008-0.19922 11 2.1016 4.3008 5 8.6992 7.8984 11.699 2-0.39844 3.8008-0.60156 5.1992-0.60156 2.3984 0 3.8984 0.60156 4.5 1.6992 0.30078 0.90625 0.097657 2.0039-0.80078 3.3047z"/>
        <path d="m60.398 54.699c1.3008 1 2.3984 1.5 3.1992 1.5 0.39844 0 0.80078-0.10156 1.3008-0.80078 0.19922-0.30078 0.30078-0.5 0.39844-0.60156-0.19922-0.10156-0.69922-0.30078-2.1016-0.30078-0.89453 0.003906-1.7969 0.10547-2.7969 0.20312z"/>
    </symbol>
    <symbol id="icon-home" viewBox="0 0 46.4 42.64">
        <path class="cls-2" d="M6.57,25.49V42.64H39.83V25.91L23.35,11Z"/>
        <path d="M36.54,2.61H31.33V7.24L23.2,0,0,20.69,3.49,24.6,23.2,7,42.9,24.6l3.5-3.91-9.86-8.8Z"/>
    </symbol>
    <symbol id="logo-small" viewBox="0 0 78.65 48.7">
        <path fill="#fff" d="M76.09 47.42a6.31 6.31 0 0 1-3.81 1.28H58.44L48.26 31.61h-3.85V48.7H27.63V0h16.78v16.94h4.21L58.18 0h14.1a6.34 6.34 0 0 1 3.61 1.13l-14.12 23z"/>
        <path fill="#8b3c45" d="M44.41 0v16.94h4.21L58.18 0H44.41zM44.41 48.7h14.03L48.26 31.61h-3.85V48.7zM27.63 0H6.37A6.39 6.39 0 0 0 0 6.37v36a6.39 6.39 0 0 0 6.37 6.33h21.26zM75.89 1.13l-14.12 23 14.32 23.29a6.38 6.38 0 0 0 2.56-5.09v-36a6.38 6.38 0 0 0-2.76-5.2z"/>
    </symbol>
    <symbol id="icon-cart" viewBox="0 0 51.13 46.88">
        <path d="M50.85 6.14L50.68 6a1.72 1.72 0 0 0-1.23-.56H10.94l-.17-1A5.29 5.29 0 0 0 5.53 0H1.62A1.59 1.59 0 0 0 0 1.62a1.63 1.63 0 0 0 1.62 1.62h4a2 2 0 0 1 2 1.67l3.35 20.15a1.19 1.19 0 0 0 .11.45l.53 3.49a6.45 6.45 0 0 0 6.31 5.35h25.89a1.58 1.58 0 0 0 1.62-1.61 1.62 1.62 0 0 0-1.62-1.62H17.86a3.08 3.08 0 0 1-3.07-2.57l-.34-1.84h30.14a1.31 1.31 0 0 0 .9-.11 1.79 1.79 0 0 0 .83-1.06L51 7.59a1.51 1.51 0 0 0-.16-1.45zm-3.41 2.62L43.53 23.5H14L11.55 8.76zM18.36 35.89a5.47 5.47 0 1 0 5.47 5.47 5.48 5.48 0 0 0-5.47-5.47zm0 3.29a2.1 2.1 0 0 1 2.12 2.18 2.21 2.21 0 0 1-2.17 2.17 2.18 2.18 0 0 1 .05-4.35zM36.45 35.89a5.5 5.5 0 1 0 5.47 5.52 5.53 5.53 0 0 0-5.47-5.52zm-.06 3.29a2.14 2.14 0 0 1 2.17 2.18 2.18 2.18 0 0 1-4.35 0 2.15 2.15 0 0 1 2.18-2.18z"/>
    </symbol>
    <symbol id="icon-info" viewBox="0 0 100 100">
        <path fill="#493d3f" d="M50,0C22.4,0,0,22.4,0,50s22.4,50,50,50s50-22.4,50-50S77.6,0,50,0z M62,66c-4.6,4.9-15.1,11.2-24.7,11.2
        c-3.1,0-5.4-2.6-5.4-3.8c0-1,0.5-2.2,1.4-4.1l12.2-23.5c0.4-0.8,0.4-1.3-0.2-1.3c-2,0-8.6,4-10.5,5.4c-1.4-0.2-2.4-1.4-1.9-2.3
        c6.4-6.2,17.4-10.9,23.7-10.9c2.6,0,5.4,2.1,5.4,4.2c0,0.9-0.8,2.7-1.5,4.2L48.2,68.3c-0.5,0.8-0.4,1.4,0.5,1.4
        c1.7,0,8.1-3.7,11.1-6C61.1,63.8,62.3,64.8,62,66z M59.2,29.3c-4.4,0-6.9-2.4-6.9-5.4c0-4.2,3.9-7.8,9.3-7.8v0c4,0,6.6,2,6.6,5.6
        C68.2,25.9,64.7,29.3,59.2,29.3z"/>
    </symbol>
    <symbol id="icon-zoom" viewBox="0 0 44.09 44.09">
        <path class="cls-1" d="M22.05,0a22,22,0,1,0,22,22.05A22.07,22.07,0,0,0,22.05,0Zm0,3.53A18.52,18.52,0,1,1,3.53,22.05,18.49,18.49,0,0,1,22.05,3.53ZM20.28,8.82V20.28H8.82v3.53H20.28V35.28h3.53V23.81H35.28V20.28H23.81V8.82Z"/>
    </symbol>
    <symbol id="icon-close" viewBox="0 0 32.07 32.07">
        <path d="M1,26.27,11.18,16,1,5.8A3.5,3.5,0,0,1,1,1,3.5,3.5,0,0,1,5.8,1L16,11.18,26.27,1A3.5,3.5,0,0,1,31.1,1a3.48,3.48,0,0,1,0,4.83L20.83,16,31.1,26.27a3.42,3.42,0,1,1-4.83,4.83L16,20.83,5.8,31.1A3.48,3.48,0,0,1,1,31.1,3.5,3.5,0,0,1,1,26.27Z"/>
    </symbol>
    <symbol id="icon-checked" viewBox="0 0 75 75">
        <path fill="#483d3e" d="M56.08,30.13a2.5,2.5,0,1,0-3.54-3.54L33.62,45.52,25,36.94a2.5,2.5,0,1,0-3.53,3.54L31,49.94a3.75,3.75,0,0,0,5.3,0Z"/>
        <path fill="#483d3e" fill-rule="evenodd" d="M75,37.5A37.5,37.5,0,1,1,37.5,0,37.5,37.5,0,0,1,75,37.5Zm-5,0A32.5,32.5,0,1,1,37.5,5,32.5,32.5,0,0,1,70,37.5Z"/>
    </symbol>
    <symbol id="icon-alert" viewBox="0 0 515.556 515.556">
        <path d="m257.778 0c-142.137 0-257.778 115.641-257.778 257.778s115.641 257.778 257.778 257.778 257.778-115.641 257.778-257.778-115.642-257.778-257.778-257.778zm32.222 386.667h-64.444v-64.444h64.444zm.002-96.667h-64.444v-161.111h64.444z"/>
    </symbol>
    <symbol id="icon-btn-plus" viewBox="0 0 39.13 39.13">
        <path fill="#483d3e" d="M19.57,0A19.57,19.57,0,1,0,39.13,19.57,19.57,19.57,0,0,0,19.57,0ZM29.63,20.49a1.3,1.3,0,0,1-.93.38H20.87V28.7A1.3,1.3,0,0,1,19.57,30a1.29,1.29,0,0,1-.93-.39,1.32,1.32,0,0,1-.38-.93V20.87H10.44a1.32,1.32,0,0,1-.94-.38,1.29,1.29,0,0,1,0-1.85,1.32,1.32,0,0,1,.94-.38h7.82V10.43a1.31,1.31,0,0,1,1.29-1.32h0a1.37,1.37,0,0,1,.94.38,1.28,1.28,0,0,1,.38.94v7.83H28.7a1.3,1.3,0,0,1,.93.38,1.29,1.29,0,0,1,0,1.85Z"/>
    </symbol>
    <symbol id="icon-btn-minus" viewBox="0 0 39.13 39.13">
        <path fill="#483d3e" d="M19.57,0A19.57,19.57,0,1,0,39.13,19.57,19.57,19.57,0,0,0,19.57,0ZM29.63,20.49a1.3,1.3,0,0,1-.93.38H10.44a1.32,1.32,0,0,1-.94-.38,1.29,1.29,0,0,1,0-1.85,1.32,1.32,0,0,1,.94-.38H28.7a1.3,1.3,0,0,1,.93.38,1.29,1.29,0,0,1,0,1.85Z"/>
    </symbol>
    <symbol id="icon-edit" viewBox="0 -1 401.52289 401">
        <path fill="green" d="m370.589844 250.972656c-5.523438 0-10 4.476563-10 10v88.789063c-.019532 16.5625-13.4375 29.984375-30 30h-280.589844c-16.5625-.015625-29.980469-13.4375-30-30v-260.589844c.019531-16.558594 13.4375-29.980469 30-30h88.789062c5.523438 0 10-4.476563 10-10 0-5.519531-4.476562-10-10-10h-88.789062c-27.601562.03125-49.96875 22.398437-50 50v260.59375c.03125 27.601563 22.398438 49.96875 50 50h280.589844c27.601562-.03125 49.96875-22.398437 50-50v-88.792969c0-5.523437-4.476563-10-10-10zm0 0"/>
        <path fill="green" d="m376.628906 13.441406c-17.574218-17.574218-46.066406-17.574218-63.640625 0l-178.40625 178.40625c-1.222656 1.222656-2.105469 2.738282-2.566406 4.402344l-23.460937 84.699219c-.964844 3.472656.015624 7.191406 2.5625 9.742187 2.550781 2.546875 6.269531 3.527344 9.742187 2.566406l84.699219-23.464843c1.664062-.460938 3.179687-1.34375 4.402344-2.566407l178.402343-178.410156c17.546875-17.585937 17.546875-46.054687 0-63.640625zm-220.257812 184.90625 146.011718-146.015625 47.089844 47.089844-146.015625 146.015625zm-9.40625 18.875 37.621094 37.625-52.039063 14.417969zm227.257812-142.546875-10.605468 10.605469-47.09375-47.09375 10.609374-10.605469c9.761719-9.761719 25.589844-9.761719 35.351563 0l11.738281 11.734375c9.746094 9.773438 9.746094 25.589844 0 35.359375zm0 0"/>
    </symbol>
    <symbol id="icon-eye" viewBox="0 0 90.93 58.9">
        <path d="M45.46,58.9c-24.75,0-44.22-26.9-45-28a2.53,2.53,0,0,1,0-2.9c.82-1.15,20.28-28,45-28s44.22,26.9,45,28a2.49,2.49,0,0,1,0,2.9C89.68,32,70.21,58.9,45.46,58.9ZM5.61,29.4c4.33,5.47,20.78,24.5,39.85,24.5S81,34.9,85.31,29.4C81,23.93,64.53,4.9,45.46,4.9S9.94,23.93,5.61,29.4Zm39.85,16a16,16,0,1,1,11.31-4.69A16,16,0,0,1,45.46,45.4Zm0-27a11,11,0,1,0,11,11,11,11,0,0,0-11-11Z"/>
    </symbol>
    <symbol id="icon-up" viewBox="0 0 35.45 18.93">
        <path d="M35.15,17.2,18.43.3A1,1,0,0,0,17,.3L.29,17.2a1,1,0,0,0,0,1.43,1,1,0,0,0,1.42,0l16-16.18,16,16.18a1,1,0,0,0,1.42,0,1,1,0,0,0,0-1.43Z"/>
    </symbol>
    <symbol id="icon-logout" viewBox="0 -10 490.66667 490">
        <path d="m325.332031 251h-309.332031c-8.832031 0-16-7.167969-16-16s7.167969-16 16-16h309.332031c8.832031 0 16 7.167969 16 16s-7.167969 16-16 16zm0 0"/>
        <path d="m240 336.332031c-4.097656 0-8.191406-1.554687-11.308594-4.691406-6.25-6.25-6.25-16.382813 0-22.636719l74.027344-74.023437-74.027344-74.027344c-6.25-6.25-6.25-16.386719 0-22.636719 6.253906-6.25 16.386719-6.25 22.636719 0l85.332031 85.335938c6.25 6.25 6.25 16.382812 0 22.632812l-85.332031 85.332032c-3.136719 3.160156-7.230469 4.714843-11.328125 4.714843zm0 0"/>
        <path d="m256 469.667969c-97.089844 0-182.804688-58.410157-218.410156-148.824219-3.242188-8.191406.808594-17.492188 9.023437-20.734375 8.191407-3.199219 17.515625.789063 20.757813 9.046875 30.742187 78.058594 104.789062 128.511719 188.628906 128.511719 111.742188 0 202.667969-90.925781 202.667969-202.667969s-90.925781-202.667969-202.667969-202.667969c-83.839844 0-157.886719 50.453125-188.628906 128.511719-3.265625 8.257812-12.566406 12.246094-20.757813 9.046875-8.214843-3.242187-12.265625-12.542969-9.023437-20.734375 35.605468-90.414062 121.320312-148.824219 218.410156-148.824219 129.386719 0 234.667969 105.28125 234.667969 234.667969s-105.28125 234.667969-234.667969 234.667969zm0 0"/>
    </symbol>

</svg>
